<svg width="21" height="21" viewBox="0 0 21 21" fill="none" xmlns="http://www.w3.org/2000/svg">
<path d="M10.5 5.10938C11.4375 5.10938 12.3281 5.39062 13.1719 5.85938C14.0156 6.32812 14.6719 6.98438 15.1406 7.82812C15.6094 8.67188 15.8906 9.5625 15.8906 10.5C15.8906 11.4844 15.6094 12.375 15.1406 13.2188C14.6719 14.0625 14.0156 14.7188 13.1719 15.1875C12.3281 15.6562 11.4375 15.8906 10.5 15.8906C9.51562 15.8906 8.625 15.6562 7.78125 15.1875C6.9375 14.7188 6.28125 14.0625 5.8125 13.2188C5.34375 12.375 5.10938 11.4844 5.10938 10.5C5.10938 9.5625 5.34375 8.67188 5.8125 7.82812C6.28125 6.98438 6.9375 6.32812 7.78125 5.85938C8.625 5.39062 9.51562 5.10938 10.5 5.10938ZM10.5 14.0156C11.4375 14.0156 12.2812 13.6875 12.9844 12.9844C13.6406 12.3281 14.0156 11.4844 14.0156 10.5C14.0156 9.5625 13.6406 8.71875 12.9844 8.01562C12.2812 7.35938 11.4375 6.98438 10.5 6.98438C9.51562 6.98438 8.67188 7.35938 8.01562 8.01562C7.3125 8.71875 6.98438 9.5625 6.98438 10.5C6.98438 11.4844 7.3125 12.3281 8.01562 12.9844C8.67188 13.6875 9.51562 14.0156 10.5 14.0156ZM17.3906 4.875C17.3906 4.54688 17.25 4.26562 17.0156 3.98438C16.7344 3.75 16.4531 3.60938 16.125 3.60938C15.75 3.60938 15.4688 3.75 15.2344 3.98438C14.9531 4.26562 14.8594 4.54688 14.8594 4.875C14.8594 5.25 14.9531 5.53125 15.2344 5.76562C15.4688 6.04688 15.75 6.14062 16.125 6.14062C16.4531 6.14062 16.7344 6.04688 16.9688 5.76562C17.2031 5.53125 17.3438 5.25 17.3906 4.875ZM20.9531 6.14062C20.9531 7.03125 21 8.48438 21 10.5C21 12.5625 20.9531 14.0156 20.9062 14.9062C20.8594 15.7969 20.7188 16.5469 20.5312 17.2031C20.25 18 19.7812 18.7031 19.2188 19.2656C18.6562 19.8281 17.9531 20.25 17.2031 20.5312C16.5469 20.7656 15.75 20.9062 14.8594 20.9531C13.9688 21 12.5156 21 10.5 21C8.4375 21 6.98438 21 6.09375 20.9531C5.20312 20.9062 4.45312 20.7656 3.79688 20.4844C3 20.25 2.29688 19.8281 1.73438 19.2656C1.17188 18.7031 0.75 18 0.46875 17.2031C0.234375 16.5469 0.09375 15.7969 0.046875 14.9062C0 14.0156 0 12.5625 0 10.5C0 8.48438 0 7.03125 0.046875 6.14062C0.09375 5.25 0.234375 4.45312 0.46875 3.79688C0.75 3.04688 1.17188 2.34375 1.73438 1.78125C2.29688 1.21875 3 0.75 3.79688 0.46875C4.45312 0.28125 5.20312 0.140625 6.09375 0.09375C6.98438 0.046875 8.4375 0 10.5 0C12.5156 0 13.9688 0.046875 14.8594 0.09375C15.75 0.140625 16.5469 0.28125 17.2031 0.46875C17.9531 0.75 18.6562 1.21875 19.2188 1.78125C19.7812 2.34375 20.25 3.04688 20.5312 3.79688C20.7188 4.45312 20.8594 5.25 20.9531 6.14062ZM18.7031 16.6875C18.8906 16.1719 18.9844 15.3281 19.0781 14.1562C19.0781 13.5 19.125 12.5156 19.125 11.25V9.75C19.125 8.48438 19.0781 7.5 19.0781 6.84375C18.9844 5.67188 18.8906 4.82812 18.7031 4.3125C18.3281 3.375 17.625 2.67188 16.6875 2.29688C16.1719 2.10938 15.3281 2.01562 14.1562 1.92188C13.4531 1.92188 12.4688 1.875 11.25 1.875H9.75C8.48438 1.875 7.5 1.92188 6.84375 1.92188C5.67188 2.01562 4.82812 2.10938 4.3125 2.29688C3.32812 2.67188 2.67188 3.375 2.29688 4.3125C2.10938 4.82812 1.96875 5.67188 1.92188 6.84375C1.875 7.54688 1.875 8.53125 1.875 9.75V11.25C1.875 12.5156 1.875 13.5 1.92188 14.1562C1.96875 15.3281 2.10938 16.1719 2.29688 16.6875C2.67188 17.6719 3.375 18.3281 4.3125 18.7031C4.82812 18.8906 5.67188 19.0312 6.84375 19.0781C7.5 19.125 8.48438 19.125 9.75 19.125H11.25C12.5156 19.125 13.5 19.125 14.1562 19.0781C15.3281 19.0312 16.1719 18.8906 16.6875 18.7031C17.625 18.3281 18.3281 17.625 18.7031 16.6875Z" fill="white"/>
</svg>
