<svg width="21" height="21" viewBox="0 0 21 21" fill="none" xmlns="http://www.w3.org/2000/svg">
<path d="M17.8594 3.04688C18.8438 4.07812 19.5938 5.20312 20.1562 6.46875C20.7188 7.73438 21 9.04688 21 10.4062C21 12.2812 20.4844 14.0156 19.5469 15.6094C18.6094 17.2031 17.2969 18.4688 15.7031 19.4062C14.1094 20.3438 12.375 20.8125 10.5 20.8125C8.71875 20.8125 7.03125 20.3906 5.53125 19.5469L0 21L1.5 15.6094C0.5625 14.0156 0.09375 12.2812 0.09375 10.4062C0.09375 8.53125 0.5625 6.79688 1.5 5.20312C2.4375 3.60938 3.70312 2.34375 5.29688 1.40625C6.89062 0.46875 8.625 0 10.5 0C11.8594 0 13.1719 0.28125 14.4375 0.796875C15.7031 1.35938 16.8281 2.10938 17.8594 3.04688ZM10.5 19.0781C12.0469 19.0781 13.5 18.7031 14.8594 17.9062C16.1719 17.1562 17.25 16.0781 18.0469 14.7656C18.8438 13.4531 19.2656 12 19.2656 10.4062C19.2656 9.28125 19.0312 8.20312 18.5625 7.125C18.0938 6.09375 17.4375 5.15625 16.5938 4.3125C15.75 3.46875 14.8125 2.85938 13.7812 2.39062C12.75 1.96875 11.625 1.73438 10.5 1.73438C8.90625 1.73438 7.45312 2.15625 6.14062 2.90625C4.82812 3.70312 3.75 4.78125 3 6.09375C2.20312 7.40625 1.82812 8.85938 1.82812 10.4062C1.82812 12.0938 2.25 13.5938 3.1875 15L3.375 15.3281L2.48438 18.5156L5.76562 17.6719L6.09375 17.8594C7.40625 18.7031 8.90625 19.0781 10.5 19.0781ZM15.2344 12.5625L15.375 12.6562C15.5625 12.75 15.7031 12.8438 15.75 12.8906C15.75 12.9844 15.75 13.125 15.75 13.3594C15.75 13.6406 15.6562 13.875 15.5625 14.1562C15.4688 14.4375 15.1875 14.6719 14.8125 14.9531C14.4375 15.2344 14.1094 15.375 13.8281 15.375C13.3594 15.4688 12.9375 15.4688 12.5625 15.375C12.0938 15.2812 11.4375 15.0938 10.6875 14.7188C9.09375 14.0625 7.64062 12.75 6.32812 10.875L6.23438 10.7812C5.53125 9.84375 5.20312 8.95312 5.20312 8.10938C5.20312 7.3125 5.48438 6.60938 6.04688 6L6.09375 5.95312C6.28125 5.76562 6.51562 5.625 6.79688 5.625H7.35938C7.45312 5.625 7.54688 5.67188 7.64062 5.71875C7.73438 5.76562 7.78125 5.85938 7.875 6.04688L8.67188 7.96875C8.76562 8.15625 8.76562 8.34375 8.71875 8.4375C8.53125 8.76562 8.34375 9.04688 8.10938 9.28125C7.96875 9.42188 7.875 9.51562 7.875 9.60938C7.82812 9.70312 7.875 9.75 7.96875 9.84375C8.39062 10.6875 8.90625 11.2969 9.51562 11.7656C9.9375 12.1406 10.5938 12.5156 11.4844 12.9375C11.7188 13.0781 11.9062 13.0781 12.0469 12.8906C12.4219 12.4219 12.7031 12.0938 12.8906 11.8594C12.9375 11.7656 13.0312 11.6719 13.125 11.6719C13.2188 11.6719 13.3125 11.7188 13.4531 11.7188C13.6875 11.8125 14.2969 12.0938 15.2344 12.5625Z" fill="white"/>
</svg>
